<svg width="204" height="171" viewBox="0 0 204 171" fill="none" xmlns="http://www.w3.org/2000/svg">
<path d="M15.125 15.625C14.6417 14.6083 13.9417 13.825 13.025 13.275C12.1083 12.7083 11.0417 12.425 9.825 12.425C8.60833 12.425 7.50833 12.7083 6.525 13.275C5.55833 13.825 4.79167 14.625 4.225 15.675C3.675 16.7083 3.4 17.9083 3.4 19.275C3.4 20.6417 3.675 21.8417 4.225 22.875C4.79167 23.9083 5.55833 24.7083 6.525 25.275C7.50833 25.825 8.60833 26.1 9.825 26.1C11.525 26.1 12.925 25.5917 14.025 24.575C15.125 23.5583 15.7667 22.1833 15.95 20.45H9V18.6H18.375V20.35C18.2417 21.7833 17.7917 23.1 17.025 24.3C16.2583 25.4833 15.25 26.425 14 27.125C12.75 27.8083 11.3583 28.15 9.825 28.15C8.20833 28.15 6.73333 27.775 5.4 27.025C4.06667 26.2583 3.00833 25.2 2.225 23.85C1.45833 22.5 1.075 20.975 1.075 19.275C1.075 17.575 1.45833 16.05 2.225 14.7C3.00833 13.3333 4.06667 12.275 5.4 11.525C6.73333 10.7583 8.20833 10.375 9.825 10.375C11.675 10.375 13.3083 10.8333 14.725 11.75C16.1583 12.6667 17.2 13.9583 17.85 15.625H15.125ZM30.158 10.575V23.45C30.158 24.8833 29.7163 26.0333 28.833 26.9C27.9497 27.75 26.783 28.175 25.333 28.175C23.8663 28.175 22.6913 27.7417 21.808 26.875C20.9247 25.9917 20.483 24.7917 20.483 23.275H22.758C22.7747 24.125 22.9913 24.8167 23.408 25.35C23.8413 25.8833 24.483 26.15 25.333 26.15C26.183 26.15 26.8163 25.9 27.233 25.4C27.6497 24.8833 27.858 24.2333 27.858 23.45V10.575H30.158ZM36.8648 10.575V21.6C36.8648 23.15 37.2398 24.3 37.9898 25.05C38.7565 25.8 39.8148 26.175 41.1648 26.175C42.4982 26.175 43.5398 25.8 44.2898 25.05C45.0565 24.3 45.4398 23.15 45.4398 21.6V10.575H47.7148V21.575C47.7148 23.025 47.4232 24.25 46.8398 25.25C46.2565 26.2333 45.4648 26.9667 44.4648 27.45C43.4815 27.9333 42.3732 28.175 41.1398 28.175C39.9065 28.175 38.7898 27.9333 37.7898 27.45C36.8065 26.9667 36.0232 26.2333 35.4398 25.25C34.8732 24.25 34.5898 23.025 34.5898 21.575V10.575H36.8648ZM61.01 17.875V19.8H51.035V17.875H61.01ZM76.9295 15.675C76.9295 17.125 76.4295 18.3333 75.4295 19.3C74.4462 20.25 72.9378 20.725 70.9045 20.725H67.5545V28H65.2795V10.575H70.9045C72.8712 10.575 74.3628 11.05 75.3795 12C76.4128 12.95 76.9295 14.175 76.9295 15.675ZM70.9045 18.85C72.1712 18.85 73.1045 18.575 73.7045 18.025C74.3045 17.475 74.6045 16.6917 74.6045 15.675C74.6045 13.525 73.3712 12.45 70.9045 12.45H67.5545V18.85H70.9045ZM78.907 21.1C78.907 19.7 79.1904 18.475 79.757 17.425C80.3237 16.3583 81.0987 15.5333 82.082 14.95C83.082 14.3667 84.1904 14.075 85.407 14.075C86.607 14.075 87.6487 14.3333 88.532 14.85C89.4154 15.3667 90.0737 16.0167 90.507 16.8V14.3H92.807V28H90.507V25.45C90.057 26.25 89.382 26.9167 88.482 27.45C87.5987 27.9667 86.5654 28.225 85.382 28.225C84.1654 28.225 83.0654 27.925 82.082 27.325C81.0987 26.725 80.3237 25.8833 79.757 24.8C79.1904 23.7167 78.907 22.4833 78.907 21.1ZM90.507 21.125C90.507 20.0917 90.2987 19.1917 89.882 18.425C89.4654 17.6583 88.8987 17.075 88.182 16.675C87.482 16.2583 86.707 16.05 85.857 16.05C85.007 16.05 84.232 16.25 83.532 16.65C82.832 17.05 82.2737 17.6333 81.857 18.4C81.4404 19.1667 81.232 20.0667 81.232 21.1C81.232 22.15 81.4404 23.0667 81.857 23.85C82.2737 24.6167 82.832 25.2083 83.532 25.625C84.232 26.025 85.007 26.225 85.857 26.225C86.707 26.225 87.482 26.025 88.182 25.625C88.8987 25.2083 89.4654 24.6167 89.882 23.85C90.2987 23.0667 90.507 22.1583 90.507 21.125ZM101.502 28.225C100.452 28.225 99.5099 28.05 98.6766 27.7C97.8432 27.3333 97.1849 26.8333 96.7016 26.2C96.2182 25.55 95.9516 24.8083 95.9016 23.975H98.2516C98.3182 24.6583 98.6349 25.2167 99.2016 25.65C99.7849 26.0833 100.543 26.3 101.477 26.3C102.343 26.3 103.027 26.1083 103.527 25.725C104.027 25.3417 104.277 24.8583 104.277 24.275C104.277 23.675 104.01 23.2333 103.477 22.95C102.943 22.65 102.118 22.3583 101.002 22.075C99.9849 21.8083 99.1516 21.5417 98.5016 21.275C97.8682 20.9917 97.3182 20.5833 96.8516 20.05C96.4016 19.5 96.1766 18.7833 96.1766 17.9C96.1766 17.2 96.3849 16.5583 96.8016 15.975C97.2182 15.3917 97.8099 14.9333 98.5766 14.6C99.3432 14.25 100.218 14.075 101.202 14.075C102.718 14.075 103.943 14.4583 104.877 15.225C105.81 15.9917 106.31 17.0417 106.377 18.375H104.102C104.052 17.6583 103.76 17.0833 103.227 16.65C102.71 16.2167 102.01 16 101.127 16C100.31 16 99.6599 16.175 99.1766 16.525C98.6932 16.875 98.4516 17.3333 98.4516 17.9C98.4516 18.35 98.5932 18.725 98.8766 19.025C99.1766 19.3083 99.5432 19.5417 99.9766 19.725C100.427 19.8917 101.043 20.0833 101.827 20.3C102.81 20.5667 103.61 20.8333 104.227 21.1C104.843 21.35 105.368 21.7333 105.802 22.25C106.252 22.7667 106.485 23.4417 106.502 24.275C106.502 25.025 106.293 25.7 105.877 26.3C105.46 26.9 104.868 27.375 104.102 27.725C103.352 28.0583 102.485 28.225 101.502 28.225ZM112.488 16.175V24.25C112.488 24.9167 112.63 25.3917 112.913 25.675C113.196 25.9417 113.688 26.075 114.388 26.075H116.063V28H114.013C112.746 28 111.796 27.7083 111.163 27.125C110.53 26.5417 110.213 25.5833 110.213 24.25V16.175H108.438V14.3H110.213V10.85H112.488V14.3H116.063V16.175H112.488ZM130.47 15.675C130.47 17.125 129.97 18.3333 128.97 19.3C127.986 20.25 126.478 20.725 124.445 20.725H121.095V28H118.82V10.575H124.445C126.411 10.575 127.903 11.05 128.92 12C129.953 12.95 130.47 14.175 130.47 15.675ZM124.445 18.85C125.711 18.85 126.645 18.575 127.245 18.025C127.845 17.475 128.145 16.6917 128.145 15.675C128.145 13.525 126.911 12.45 124.445 12.45H121.095V18.85H124.445ZM132.447 21.1C132.447 19.7 132.73 18.475 133.297 17.425C133.864 16.3583 134.639 15.5333 135.622 14.95C136.622 14.3667 137.73 14.075 138.947 14.075C140.147 14.075 141.189 14.3333 142.072 14.85C142.955 15.3667 143.614 16.0167 144.047 16.8V14.3H146.347V28H144.047V25.45C143.597 26.25 142.922 26.9167 142.022 27.45C141.139 27.9667 140.105 28.225 138.922 28.225C137.705 28.225 136.605 27.925 135.622 27.325C134.639 26.725 133.864 25.8833 133.297 24.8C132.73 23.7167 132.447 22.4833 132.447 21.1ZM144.047 21.125C144.047 20.0917 143.839 19.1917 143.422 18.425C143.005 17.6583 142.439 17.075 141.722 16.675C141.022 16.2583 140.247 16.05 139.397 16.05C138.547 16.05 137.772 16.25 137.072 16.65C136.372 17.05 135.814 17.6333 135.397 18.4C134.98 19.1667 134.772 20.0667 134.772 21.1C134.772 22.15 134.98 23.0667 135.397 23.85C135.814 24.6167 136.372 25.2083 137.072 25.625C137.772 26.025 138.547 26.225 139.397 26.225C140.247 26.225 141.022 26.025 141.722 25.625C142.439 25.2083 143.005 24.6167 143.422 23.85C143.839 23.0667 144.047 22.1583 144.047 21.125ZM152.467 16.825C152.917 16.0417 153.583 15.3917 154.467 14.875C155.367 14.3417 156.408 14.075 157.592 14.075C158.808 14.075 159.908 14.3667 160.892 14.95C161.892 15.5333 162.675 16.3583 163.242 17.425C163.808 18.475 164.092 19.7 164.092 21.1C164.092 22.4833 163.808 23.7167 163.242 24.8C162.675 25.8833 161.892 26.725 160.892 27.325C159.908 27.925 158.808 28.225 157.592 28.225C156.425 28.225 155.392 27.9667 154.492 27.45C153.608 26.9167 152.933 26.2583 152.467 25.475V34.5H150.192V14.3H152.467V16.825ZM161.767 21.1C161.767 20.0667 161.558 19.1667 161.142 18.4C160.725 17.6333 160.158 17.05 159.442 16.65C158.742 16.25 157.967 16.05 157.117 16.05C156.283 16.05 155.508 16.2583 154.792 16.675C154.092 17.075 153.525 17.6667 153.092 18.45C152.675 19.2167 152.467 20.1083 152.467 21.125C152.467 22.1583 152.675 23.0667 153.092 23.85C153.525 24.6167 154.092 25.2083 154.792 25.625C155.508 26.025 156.283 26.225 157.117 26.225C157.967 26.225 158.742 26.025 159.442 25.625C160.158 25.2083 160.725 24.6167 161.142 23.85C161.558 23.0667 161.767 22.15 161.767 21.1ZM179.586 20.625C179.586 21.0583 179.561 21.5167 179.511 22H168.561C168.644 23.35 169.103 24.4083 169.936 25.175C170.786 25.925 171.811 26.3 173.011 26.3C173.994 26.3 174.811 26.075 175.461 25.625C176.128 25.1583 176.594 24.5417 176.861 23.775H179.311C178.944 25.0917 178.211 26.1667 177.111 27C176.011 27.8167 174.644 28.225 173.011 28.225C171.711 28.225 170.544 27.9333 169.511 27.35C168.494 26.7667 167.694 25.9417 167.111 24.875C166.528 23.7917 166.236 22.5417 166.236 21.125C166.236 19.7083 166.519 18.4667 167.086 17.4C167.653 16.3333 168.444 15.5167 169.461 14.95C170.494 14.3667 171.678 14.075 173.011 14.075C174.311 14.075 175.461 14.3583 176.461 14.925C177.461 15.4917 178.228 16.275 178.761 17.275C179.311 18.2583 179.586 19.375 179.586 20.625ZM177.236 20.15C177.236 19.2833 177.044 18.5417 176.661 17.925C176.278 17.2917 175.753 16.8167 175.086 16.5C174.436 16.1667 173.711 16 172.911 16C171.761 16 170.778 16.3667 169.961 17.1C169.161 17.8333 168.703 18.85 168.586 20.15H177.236ZM184.864 16.525C185.264 15.7417 185.831 15.1333 186.564 14.7C187.314 14.2667 188.222 14.05 189.289 14.05V16.4H188.689C186.139 16.4 184.864 17.7833 184.864 20.55V28H182.589V14.3H184.864V16.525ZM196.765 28.225C195.715 28.225 194.774 28.05 193.94 27.7C193.107 27.3333 192.449 26.8333 191.965 26.2C191.482 25.55 191.215 24.8083 191.165 23.975H193.515C193.582 24.6583 193.899 25.2167 194.465 25.65C195.049 26.0833 195.807 26.3 196.74 26.3C197.607 26.3 198.29 26.1083 198.79 25.725C199.29 25.3417 199.54 24.8583 199.54 24.275C199.54 23.675 199.274 23.2333 198.74 22.95C198.207 22.65 197.382 22.3583 196.265 22.075C195.249 21.8083 194.415 21.5417 193.765 21.275C193.132 20.9917 192.582 20.5833 192.115 20.05C191.665 19.5 191.44 18.7833 191.44 17.9C191.44 17.2 191.649 16.5583 192.065 15.975C192.482 15.3917 193.074 14.9333 193.84 14.6C194.607 14.25 195.482 14.075 196.465 14.075C197.982 14.075 199.207 14.4583 200.14 15.225C201.074 15.9917 201.574 17.0417 201.64 18.375H199.365C199.315 17.6583 199.024 17.0833 198.49 16.65C197.974 16.2167 197.274 16 196.39 16C195.574 16 194.924 16.175 194.44 16.525C193.957 16.875 193.715 17.3333 193.715 17.9C193.715 18.35 193.857 18.725 194.14 19.025C194.44 19.3083 194.807 19.5417 195.24 19.725C195.69 19.8917 196.307 20.0833 197.09 20.3C198.074 20.5667 198.874 20.8333 199.49 21.1C200.107 21.35 200.632 21.7333 201.065 22.25C201.515 22.7667 201.749 23.4417 201.765 24.275C201.765 25.025 201.557 25.7 201.14 26.3C200.724 26.9 200.132 27.375 199.365 27.725C198.615 28.0583 197.749 28.225 196.765 28.225Z" fill="white" fill-opacity="0.7"/>
<rect x="19.8638" y="83.3659" width="100" height="100" rx="12" transform="rotate(-30.2424 19.8638 83.3659)" fill="#2697FF"/>
<rect x="36.2778" y="73.7964" width="3" height="100" transform="rotate(-30.2424 36.2778 73.7964)" fill="#F1F1F1"/>
<circle cx="34.7269" cy="88.0124" r="3.5" transform="rotate(-30.2424 34.7269 88.0124)" fill="#F1F1F1"/>
<circle cx="53.8661" cy="120.841" r="3.5" transform="rotate(-30.2424 53.8661 120.841)" fill="#F1F1F1"/>
<circle cx="73.0052" cy="153.669" r="3.5" transform="rotate(-30.2424 73.0052 153.669)" fill="#F1F1F1"/>
<ellipse cx="26.3396" cy="93.4809" rx="1.5" ry="1" transform="rotate(-30.2424 26.3396 93.4809)" fill="#F1F1F1"/>
<ellipse cx="28.3542" cy="96.9365" rx="1.5" ry="1" transform="rotate(-30.2424 28.3542 96.9365)" fill="#F1F1F1"/>
<ellipse cx="30.3688" cy="100.392" rx="1.5" ry="1" transform="rotate(-30.2424 30.3688 100.392)" fill="#F1F1F1"/>
<ellipse cx="32.3835" cy="103.848" rx="1.5" ry="1" transform="rotate(-30.2424 32.3835 103.848)" fill="#F1F1F1"/>
<ellipse cx="34.3981" cy="107.303" rx="1.5" ry="1" transform="rotate(-30.2424 34.3981 107.303)" fill="#F1F1F1"/>
<ellipse cx="36.4128" cy="110.759" rx="1.5" ry="1" transform="rotate(-30.2424 36.4128 110.759)" fill="#F1F1F1"/>
<ellipse cx="38.4274" cy="114.215" rx="1.5" ry="1" transform="rotate(-30.2424 38.4274 114.215)" fill="#F1F1F1"/>
<ellipse cx="40.4421" cy="117.67" rx="1.5" ry="1" transform="rotate(-30.2424 40.4421 117.67)" fill="#F1F1F1"/>
<ellipse cx="42.4567" cy="121.126" rx="1.5" ry="1" transform="rotate(-30.2424 42.4567 121.126)" fill="#F1F1F1"/>
<ellipse cx="44.4714" cy="124.581" rx="1.5" ry="1" transform="rotate(-30.2424 44.4714 124.581)" fill="#F1F1F1"/>
<ellipse cx="46.486" cy="128.037" rx="1.5" ry="1" transform="rotate(-30.2424 46.486 128.037)" fill="#F1F1F1"/>
<ellipse cx="48.5007" cy="131.493" rx="1.5" ry="1" transform="rotate(-30.2424 48.5007 131.493)" fill="#F1F1F1"/>
<ellipse cx="50.5153" cy="134.948" rx="1.5" ry="1" transform="rotate(-30.2424 50.5153 134.948)" fill="#F1F1F1"/>
<ellipse cx="52.53" cy="138.404" rx="1.5" ry="1" transform="rotate(-30.2424 52.53 138.404)" fill="#F1F1F1"/>
<ellipse cx="54.5446" cy="141.859" rx="1.5" ry="1" transform="rotate(-30.2424 54.5446 141.859)" fill="#F1F1F1"/>
<ellipse cx="56.5593" cy="145.315" rx="1.5" ry="1" transform="rotate(-30.2424 56.5593 145.315)" fill="#F1F1F1"/>
<ellipse cx="58.5739" cy="148.771" rx="1.5" ry="1" transform="rotate(-30.2424 58.5739 148.771)" fill="#F1F1F1"/>
<ellipse cx="60.5886" cy="152.226" rx="1.5" ry="1" transform="rotate(-30.2424 60.5886 152.226)" fill="#F1F1F1"/>
<ellipse cx="62.6032" cy="155.682" rx="1.5" ry="1" transform="rotate(-30.2424 62.6032 155.682)" fill="#F1F1F1"/>
<ellipse cx="64.6179" cy="159.137" rx="1.5" ry="1" transform="rotate(-30.2424 64.6179 159.137)" fill="#F1F1F1"/>
<rect x="40.9224" y="75.6696" width="100" height="100" rx="12" transform="rotate(-22.7491 40.9224 75.6696)" fill="#26FFFF"/>
<rect x="58.4443" y="68.3224" width="3" height="100" transform="rotate(-22.7491 58.4443 68.3224)" fill="#F1F1F1"/>
<circle cx="55.0524" cy="82.2147" r="3.5" transform="rotate(-22.7491 55.0524 82.2147)" fill="#F1F1F1"/>
<circle cx="69.7467" cy="117.259" r="3.5" transform="rotate(-22.7491 69.7467 117.259)" fill="#F1F1F1"/>
<circle cx="84.4415" cy="152.302" r="3.5" transform="rotate(-22.7491 84.4415 152.302)" fill="#F1F1F1"/>
<ellipse cx="46.0234" cy="86.5428" rx="1.5" ry="1" transform="rotate(-22.7491 46.0234 86.5428)" fill="#F1F1F1"/>
<ellipse cx="47.5703" cy="90.2316" rx="1.5" ry="1" transform="rotate(-22.7491 47.5703 90.2316)" fill="#F1F1F1"/>
<ellipse cx="49.1172" cy="93.9204" rx="1.5" ry="1" transform="rotate(-22.7491 49.1172 93.9204)" fill="#F1F1F1"/>
<ellipse cx="50.6641" cy="97.6093" rx="1.5" ry="1" transform="rotate(-22.7491 50.6641 97.6093)" fill="#F1F1F1"/>
<ellipse cx="52.2109" cy="101.298" rx="1.5" ry="1" transform="rotate(-22.7491 52.2109 101.298)" fill="#F1F1F1"/>
<ellipse cx="53.7578" cy="104.987" rx="1.5" ry="1" transform="rotate(-22.7491 53.7578 104.987)" fill="#F1F1F1"/>
<ellipse cx="55.3042" cy="108.676" rx="1.5" ry="1" transform="rotate(-22.7491 55.3042 108.676)" fill="#F1F1F1"/>
<ellipse cx="56.8511" cy="112.365" rx="1.5" ry="1" transform="rotate(-22.7491 56.8511 112.365)" fill="#F1F1F1"/>
<ellipse cx="58.3979" cy="116.053" rx="1.5" ry="1" transform="rotate(-22.7491 58.3979 116.053)" fill="#F1F1F1"/>
<ellipse cx="59.9448" cy="119.742" rx="1.5" ry="1" transform="rotate(-22.7491 59.9448 119.742)" fill="#F1F1F1"/>
<ellipse cx="61.4917" cy="123.431" rx="1.5" ry="1" transform="rotate(-22.7491 61.4917 123.431)" fill="#F1F1F1"/>
<ellipse cx="63.0381" cy="127.12" rx="1.5" ry="1" transform="rotate(-22.7491 63.0381 127.12)" fill="#F1F1F1"/>
<ellipse cx="64.5849" cy="130.809" rx="1.5" ry="1" transform="rotate(-22.7491 64.5849 130.809)" fill="#F1F1F1"/>
<ellipse cx="66.1318" cy="134.498" rx="1.5" ry="1" transform="rotate(-22.7491 66.1318 134.498)" fill="#F1F1F1"/>
<ellipse cx="67.6787" cy="138.186" rx="1.5" ry="1" transform="rotate(-22.7491 67.6787 138.186)" fill="#F1F1F1"/>
<ellipse cx="69.2256" cy="141.875" rx="1.5" ry="1" transform="rotate(-22.7491 69.2256 141.875)" fill="#F1F1F1"/>
<ellipse cx="70.7724" cy="145.564" rx="1.5" ry="1" transform="rotate(-22.7491 70.7724 145.564)" fill="#F1F1F1"/>
<ellipse cx="72.3188" cy="149.253" rx="1.5" ry="1" transform="rotate(-22.7491 72.3188 149.253)" fill="#F1F1F1"/>
<ellipse cx="73.8657" cy="152.942" rx="1.5" ry="1" transform="rotate(-22.7491 73.8657 152.942)" fill="#F1F1F1"/>
<ellipse cx="75.4126" cy="156.63" rx="1.5" ry="1" transform="rotate(-22.7491 75.4126 156.63)" fill="#F1F1F1"/>
<rect x="62.9883" y="65.3806" width="100" height="100" rx="12" transform="rotate(-8.84754 62.9883 65.3806)" fill="#FF2667"/>
<rect x="81.7622" y="62.4583" width="3" height="100" transform="rotate(-8.84754 81.7622 62.4583)" fill="#F1F1F1"/>
<circle cx="75.1319" cy="75.1288" r="3.5" transform="rotate(-8.84754 75.1319 75.1288)" fill="#F1F1F1"/>
<circle cx="80.9767" cy="112.677" r="3.5" transform="rotate(-8.84754 80.9767 112.677)" fill="#F1F1F1"/>
<circle cx="86.8214" cy="150.224" r="3.5" transform="rotate(-8.84754 86.8214 150.224)" fill="#F1F1F1"/>
<ellipse cx="65.3279" cy="77.1609" rx="1.5" ry="1" transform="rotate(-8.84754 65.3279 77.1609)" fill="#F1F1F1"/>
<ellipse cx="65.9431" cy="81.1133" rx="1.5" ry="1" transform="rotate(-8.84754 65.9431 81.1133)" fill="#F1F1F1"/>
<ellipse cx="66.5583" cy="85.0657" rx="1.5" ry="1" transform="rotate(-8.84754 66.5583 85.0657)" fill="#F1F1F1"/>
<ellipse cx="67.1736" cy="89.0181" rx="1.5" ry="1" transform="rotate(-8.84754 67.1736 89.0181)" fill="#F1F1F1"/>
<ellipse cx="67.7888" cy="92.9705" rx="1.5" ry="1" transform="rotate(-8.84754 67.7888 92.9705)" fill="#F1F1F1"/>
<ellipse cx="68.404" cy="96.9229" rx="1.5" ry="1" transform="rotate(-8.84754 68.404 96.9229)" fill="#F1F1F1"/>
<ellipse cx="69.0193" cy="100.875" rx="1.5" ry="1" transform="rotate(-8.84754 69.0193 100.875)" fill="#F1F1F1"/>
<ellipse cx="69.6345" cy="104.828" rx="1.5" ry="1" transform="rotate(-8.84754 69.6345 104.828)" fill="#F1F1F1"/>
<ellipse cx="70.2497" cy="108.78" rx="1.5" ry="1" transform="rotate(-8.84754 70.2497 108.78)" fill="#F1F1F1"/>
<ellipse cx="70.865" cy="112.732" rx="1.5" ry="1" transform="rotate(-8.84754 70.865 112.732)" fill="#F1F1F1"/>
<ellipse cx="71.4802" cy="116.685" rx="1.5" ry="1" transform="rotate(-8.84754 71.4802 116.685)" fill="#F1F1F1"/>
<ellipse cx="72.0954" cy="120.637" rx="1.5" ry="1" transform="rotate(-8.84754 72.0954 120.637)" fill="#F1F1F1"/>
<ellipse cx="72.7107" cy="124.59" rx="1.5" ry="1" transform="rotate(-8.84754 72.7107 124.59)" fill="#F1F1F1"/>
<ellipse cx="73.3259" cy="128.542" rx="1.5" ry="1" transform="rotate(-8.84754 73.3259 128.542)" fill="#F1F1F1"/>
<ellipse cx="73.9411" cy="132.495" rx="1.5" ry="1" transform="rotate(-8.84754 73.9411 132.495)" fill="#F1F1F1"/>
<ellipse cx="74.5564" cy="136.447" rx="1.5" ry="1" transform="rotate(-8.84754 74.5564 136.447)" fill="#F1F1F1"/>
<ellipse cx="75.1716" cy="140.399" rx="1.5" ry="1" transform="rotate(-8.84754 75.1716 140.399)" fill="#F1F1F1"/>
<ellipse cx="75.7868" cy="144.352" rx="1.5" ry="1" transform="rotate(-8.84754 75.7868 144.352)" fill="#F1F1F1"/>
<ellipse cx="76.4021" cy="148.304" rx="1.5" ry="1" transform="rotate(-8.84754 76.4021 148.304)" fill="#F1F1F1"/>
<ellipse cx="77.0173" cy="152.257" rx="1.5" ry="1" transform="rotate(-8.84754 77.0173 152.257)" fill="#F1F1F1"/>
<rect x="86" y="61" width="100" height="100" rx="12" fill="#6BFF26"/>
<rect x="105" y="61" width="3" height="100" fill="#F1F1F1"/>
<circle cx="96.5" cy="72.5" r="3.5" fill="#F1F1F1"/>
<circle cx="96.5" cy="110.5" r="3.5" fill="#F1F1F1"/>
<circle cx="96.5" cy="148.5" r="3.5" fill="#F1F1F1"/>
<ellipse cx="86.5" cy="73" rx="1.5" ry="1" fill="#F1F1F1"/>
<ellipse cx="86.5" cy="77" rx="1.5" ry="1" fill="#F1F1F1"/>
<ellipse cx="86.5" cy="81" rx="1.5" ry="1" fill="#F1F1F1"/>
<ellipse cx="86.5" cy="85" rx="1.5" ry="1" fill="#F1F1F1"/>
<ellipse cx="86.5" cy="89" rx="1.5" ry="1" fill="#F1F1F1"/>
<ellipse cx="86.5" cy="93" rx="1.5" ry="1" fill="#F1F1F1"/>
<ellipse cx="86.5" cy="97" rx="1.5" ry="1" fill="#F1F1F1"/>
<ellipse cx="86.5" cy="101" rx="1.5" ry="1" fill="#F1F1F1"/>
<ellipse cx="86.5" cy="105" rx="1.5" ry="1" fill="#F1F1F1"/>
<ellipse cx="86.5" cy="109" rx="1.5" ry="1" fill="#F1F1F1"/>
<ellipse cx="86.5" cy="113" rx="1.5" ry="1" fill="#F1F1F1"/>
<ellipse cx="86.5" cy="117" rx="1.5" ry="1" fill="#F1F1F1"/>
<ellipse cx="86.5" cy="121" rx="1.5" ry="1" fill="#F1F1F1"/>
<ellipse cx="86.5" cy="125" rx="1.5" ry="1" fill="#F1F1F1"/>
<ellipse cx="86.5" cy="129" rx="1.5" ry="1" fill="#F1F1F1"/>
<ellipse cx="86.5" cy="133" rx="1.5" ry="1" fill="#F1F1F1"/>
<ellipse cx="86.5" cy="137" rx="1.5" ry="1" fill="#F1F1F1"/>
<ellipse cx="86.5" cy="141" rx="1.5" ry="1" fill="#F1F1F1"/>
<ellipse cx="86.5" cy="145" rx="1.5" ry="1" fill="#F1F1F1"/>
<ellipse cx="86.5" cy="149" rx="1.5" ry="1" fill="#F1F1F1"/>
</svg>
