<svg width="167" height="138" viewBox="0 0 167 138" fill="none" xmlns="http://www.w3.org/2000/svg">
<rect x="0.86377" y="50.366" width="100" height="100" rx="12" transform="rotate(-30.2424 0.86377 50.366)" fill="#2697FF"/>
<rect x="17.2778" y="40.7964" width="3" height="100" transform="rotate(-30.2424 17.2778 40.7964)" fill="#F1F1F1"/>
<circle cx="15.7269" cy="55.0124" r="3.5" transform="rotate(-30.2424 15.7269 55.0124)" fill="#F1F1F1"/>
<circle cx="34.8661" cy="87.8407" r="3.5" transform="rotate(-30.2424 34.8661 87.8407)" fill="#F1F1F1"/>
<circle cx="54.0052" cy="120.669" r="3.5" transform="rotate(-30.2424 54.0052 120.669)" fill="#F1F1F1"/>
<ellipse cx="7.33955" cy="60.481" rx="1.5" ry="1" transform="rotate(-30.2424 7.33955 60.481)" fill="#F1F1F1"/>
<ellipse cx="9.3542" cy="63.9365" rx="1.5" ry="1" transform="rotate(-30.2424 9.3542 63.9365)" fill="#F1F1F1"/>
<ellipse cx="11.3688" cy="67.3922" rx="1.5" ry="1" transform="rotate(-30.2424 11.3688 67.3922)" fill="#F1F1F1"/>
<ellipse cx="13.3835" cy="70.8478" rx="1.5" ry="1" transform="rotate(-30.2424 13.3835 70.8478)" fill="#F1F1F1"/>
<ellipse cx="15.3981" cy="74.3034" rx="1.5" ry="1" transform="rotate(-30.2424 15.3981 74.3034)" fill="#F1F1F1"/>
<ellipse cx="17.4128" cy="77.759" rx="1.5" ry="1" transform="rotate(-30.2424 17.4128 77.759)" fill="#F1F1F1"/>
<ellipse cx="19.4274" cy="81.2146" rx="1.5" ry="1" transform="rotate(-30.2424 19.4274 81.2146)" fill="#F1F1F1"/>
<ellipse cx="21.4421" cy="84.6702" rx="1.5" ry="1" transform="rotate(-30.2424 21.4421 84.6702)" fill="#F1F1F1"/>
<ellipse cx="23.4567" cy="88.1259" rx="1.5" ry="1" transform="rotate(-30.2424 23.4567 88.1259)" fill="#F1F1F1"/>
<ellipse cx="25.4714" cy="91.5814" rx="1.5" ry="1" transform="rotate(-30.2424 25.4714 91.5814)" fill="#F1F1F1"/>
<ellipse cx="27.486" cy="95.037" rx="1.5" ry="1" transform="rotate(-30.2424 27.486 95.037)" fill="#F1F1F1"/>
<ellipse cx="29.5007" cy="98.4927" rx="1.5" ry="1" transform="rotate(-30.2424 29.5007 98.4927)" fill="#F1F1F1"/>
<ellipse cx="31.5153" cy="101.948" rx="1.5" ry="1" transform="rotate(-30.2424 31.5153 101.948)" fill="#F1F1F1"/>
<ellipse cx="33.53" cy="105.404" rx="1.5" ry="1" transform="rotate(-30.2424 33.53 105.404)" fill="#F1F1F1"/>
<ellipse cx="35.5446" cy="108.86" rx="1.5" ry="1" transform="rotate(-30.2424 35.5446 108.86)" fill="#F1F1F1"/>
<ellipse cx="37.5593" cy="112.315" rx="1.5" ry="1" transform="rotate(-30.2424 37.5593 112.315)" fill="#F1F1F1"/>
<ellipse cx="39.5739" cy="115.771" rx="1.5" ry="1" transform="rotate(-30.2424 39.5739 115.771)" fill="#F1F1F1"/>
<ellipse cx="41.5886" cy="119.226" rx="1.5" ry="1" transform="rotate(-30.2424 41.5886 119.226)" fill="#F1F1F1"/>
<ellipse cx="43.6032" cy="122.682" rx="1.5" ry="1" transform="rotate(-30.2424 43.6032 122.682)" fill="#F1F1F1"/>
<ellipse cx="45.6179" cy="126.138" rx="1.5" ry="1" transform="rotate(-30.2424 45.6179 126.138)" fill="#F1F1F1"/>
<rect x="21.9224" y="42.6697" width="100" height="100" rx="12" transform="rotate(-22.7491 21.9224 42.6697)" fill="#26FFFF"/>
<rect x="39.4443" y="35.3225" width="3" height="100" transform="rotate(-22.7491 39.4443 35.3225)" fill="#F1F1F1"/>
<circle cx="36.0524" cy="49.2147" r="3.5" transform="rotate(-22.7491 36.0524 49.2147)" fill="#F1F1F1"/>
<circle cx="50.7467" cy="84.2587" r="3.5" transform="rotate(-22.7491 50.7467 84.2587)" fill="#F1F1F1"/>
<circle cx="65.4415" cy="119.303" r="3.5" transform="rotate(-22.7491 65.4415 119.303)" fill="#F1F1F1"/>
<ellipse cx="27.0234" cy="53.5428" rx="1.5" ry="1" transform="rotate(-22.7491 27.0234 53.5428)" fill="#F1F1F1"/>
<ellipse cx="28.5703" cy="57.2317" rx="1.5" ry="1" transform="rotate(-22.7491 28.5703 57.2317)" fill="#F1F1F1"/>
<ellipse cx="30.1172" cy="60.9205" rx="1.5" ry="1" transform="rotate(-22.7491 30.1172 60.9205)" fill="#F1F1F1"/>
<ellipse cx="31.664" cy="64.6094" rx="1.5" ry="1" transform="rotate(-22.7491 31.664 64.6094)" fill="#F1F1F1"/>
<ellipse cx="33.2109" cy="68.2981" rx="1.5" ry="1" transform="rotate(-22.7491 33.2109 68.2981)" fill="#F1F1F1"/>
<ellipse cx="34.7578" cy="71.9869" rx="1.5" ry="1" transform="rotate(-22.7491 34.7578 71.9869)" fill="#F1F1F1"/>
<ellipse cx="36.3042" cy="75.6758" rx="1.5" ry="1" transform="rotate(-22.7491 36.3042 75.6758)" fill="#F1F1F1"/>
<ellipse cx="37.8511" cy="79.3646" rx="1.5" ry="1" transform="rotate(-22.7491 37.8511 79.3646)" fill="#F1F1F1"/>
<ellipse cx="39.3979" cy="83.0535" rx="1.5" ry="1" transform="rotate(-22.7491 39.3979 83.0535)" fill="#F1F1F1"/>
<ellipse cx="40.9448" cy="86.7423" rx="1.5" ry="1" transform="rotate(-22.7491 40.9448 86.7423)" fill="#F1F1F1"/>
<ellipse cx="42.4917" cy="90.4312" rx="1.5" ry="1" transform="rotate(-22.7491 42.4917 90.4312)" fill="#F1F1F1"/>
<ellipse cx="44.0381" cy="94.12" rx="1.5" ry="1" transform="rotate(-22.7491 44.0381 94.12)" fill="#F1F1F1"/>
<ellipse cx="45.5849" cy="97.8088" rx="1.5" ry="1" transform="rotate(-22.7491 45.5849 97.8088)" fill="#F1F1F1"/>
<ellipse cx="47.1318" cy="101.498" rx="1.5" ry="1" transform="rotate(-22.7491 47.1318 101.498)" fill="#F1F1F1"/>
<ellipse cx="48.6787" cy="105.186" rx="1.5" ry="1" transform="rotate(-22.7491 48.6787 105.186)" fill="#F1F1F1"/>
<ellipse cx="50.2256" cy="108.875" rx="1.5" ry="1" transform="rotate(-22.7491 50.2256 108.875)" fill="#F1F1F1"/>
<ellipse cx="51.7724" cy="112.564" rx="1.5" ry="1" transform="rotate(-22.7491 51.7724 112.564)" fill="#F1F1F1"/>
<ellipse cx="53.3188" cy="116.253" rx="1.5" ry="1" transform="rotate(-22.7491 53.3188 116.253)" fill="#F1F1F1"/>
<ellipse cx="54.8657" cy="119.942" rx="1.5" ry="1" transform="rotate(-22.7491 54.8657 119.942)" fill="#F1F1F1"/>
<ellipse cx="56.4126" cy="123.631" rx="1.5" ry="1" transform="rotate(-22.7491 56.4126 123.631)" fill="#F1F1F1"/>
<rect x="43.9883" y="32.3806" width="100" height="100" rx="12" transform="rotate(-8.84754 43.9883 32.3806)" fill="#FF2667"/>
<rect x="62.7622" y="29.4583" width="3" height="100" transform="rotate(-8.84754 62.7622 29.4583)" fill="#F1F1F1"/>
<circle cx="56.1319" cy="42.1288" r="3.5" transform="rotate(-8.84754 56.1319 42.1288)" fill="#F1F1F1"/>
<circle cx="61.9767" cy="79.6766" r="3.5" transform="rotate(-8.84754 61.9767 79.6766)" fill="#F1F1F1"/>
<circle cx="67.8214" cy="117.224" r="3.5" transform="rotate(-8.84754 67.8214 117.224)" fill="#F1F1F1"/>
<ellipse cx="46.3279" cy="44.161" rx="1.5" ry="1" transform="rotate(-8.84754 46.3279 44.161)" fill="#F1F1F1"/>
<ellipse cx="46.9431" cy="48.1133" rx="1.5" ry="1" transform="rotate(-8.84754 46.9431 48.1133)" fill="#F1F1F1"/>
<ellipse cx="47.5583" cy="52.0657" rx="1.5" ry="1" transform="rotate(-8.84754 47.5583 52.0657)" fill="#F1F1F1"/>
<ellipse cx="48.1736" cy="56.0181" rx="1.5" ry="1" transform="rotate(-8.84754 48.1736 56.0181)" fill="#F1F1F1"/>
<ellipse cx="48.7888" cy="59.9705" rx="1.5" ry="1" transform="rotate(-8.84754 48.7888 59.9705)" fill="#F1F1F1"/>
<ellipse cx="49.404" cy="63.9229" rx="1.5" ry="1" transform="rotate(-8.84754 49.404 63.9229)" fill="#F1F1F1"/>
<ellipse cx="50.0193" cy="67.8753" rx="1.5" ry="1" transform="rotate(-8.84754 50.0193 67.8753)" fill="#F1F1F1"/>
<ellipse cx="50.6345" cy="71.8277" rx="1.5" ry="1" transform="rotate(-8.84754 50.6345 71.8277)" fill="#F1F1F1"/>
<ellipse cx="51.2497" cy="75.7802" rx="1.5" ry="1" transform="rotate(-8.84754 51.2497 75.7802)" fill="#F1F1F1"/>
<ellipse cx="51.865" cy="79.7326" rx="1.5" ry="1" transform="rotate(-8.84754 51.865 79.7326)" fill="#F1F1F1"/>
<ellipse cx="52.4802" cy="83.685" rx="1.5" ry="1" transform="rotate(-8.84754 52.4802 83.685)" fill="#F1F1F1"/>
<ellipse cx="53.0954" cy="87.6374" rx="1.5" ry="1" transform="rotate(-8.84754 53.0954 87.6374)" fill="#F1F1F1"/>
<ellipse cx="53.7107" cy="91.5898" rx="1.5" ry="1" transform="rotate(-8.84754 53.7107 91.5898)" fill="#F1F1F1"/>
<ellipse cx="54.3259" cy="95.5422" rx="1.5" ry="1" transform="rotate(-8.84754 54.3259 95.5422)" fill="#F1F1F1"/>
<ellipse cx="54.9411" cy="99.4946" rx="1.5" ry="1" transform="rotate(-8.84754 54.9411 99.4946)" fill="#F1F1F1"/>
<ellipse cx="55.5564" cy="103.447" rx="1.5" ry="1" transform="rotate(-8.84754 55.5564 103.447)" fill="#F1F1F1"/>
<ellipse cx="56.1716" cy="107.399" rx="1.5" ry="1" transform="rotate(-8.84754 56.1716 107.399)" fill="#F1F1F1"/>
<ellipse cx="56.7868" cy="111.352" rx="1.5" ry="1" transform="rotate(-8.84754 56.7868 111.352)" fill="#F1F1F1"/>
<ellipse cx="57.4021" cy="115.304" rx="1.5" ry="1" transform="rotate(-8.84754 57.4021 115.304)" fill="#F1F1F1"/>
<ellipse cx="58.0173" cy="119.257" rx="1.5" ry="1" transform="rotate(-8.84754 58.0173 119.257)" fill="#F1F1F1"/>
<rect x="67" y="28" width="100" height="100" rx="12" fill="#6BFF26"/>
<rect x="86" y="28" width="3" height="100" fill="#F1F1F1"/>
<circle cx="77.5" cy="39.5" r="3.5" fill="#F1F1F1"/>
<circle cx="77.5" cy="77.5" r="3.5" fill="#F1F1F1"/>
<circle cx="77.5" cy="115.5" r="3.5" fill="#F1F1F1"/>
<ellipse cx="67.5" cy="40" rx="1.5" ry="1" fill="#F1F1F1"/>
<ellipse cx="67.5" cy="44" rx="1.5" ry="1" fill="#F1F1F1"/>
<ellipse cx="67.5" cy="48" rx="1.5" ry="1" fill="#F1F1F1"/>
<ellipse cx="67.5" cy="52" rx="1.5" ry="1" fill="#F1F1F1"/>
<ellipse cx="67.5" cy="56" rx="1.5" ry="1" fill="#F1F1F1"/>
<ellipse cx="67.5" cy="60" rx="1.5" ry="1" fill="#F1F1F1"/>
<ellipse cx="67.5" cy="64" rx="1.5" ry="1" fill="#F1F1F1"/>
<ellipse cx="67.5" cy="68" rx="1.5" ry="1" fill="#F1F1F1"/>
<ellipse cx="67.5" cy="72" rx="1.5" ry="1" fill="#F1F1F1"/>
<ellipse cx="67.5" cy="76" rx="1.5" ry="1" fill="#F1F1F1"/>
<ellipse cx="67.5" cy="80" rx="1.5" ry="1" fill="#F1F1F1"/>
<ellipse cx="67.5" cy="84" rx="1.5" ry="1" fill="#F1F1F1"/>
<ellipse cx="67.5" cy="88" rx="1.5" ry="1" fill="#F1F1F1"/>
<ellipse cx="67.5" cy="92" rx="1.5" ry="1" fill="#F1F1F1"/>
<ellipse cx="67.5" cy="96" rx="1.5" ry="1" fill="#F1F1F1"/>
<ellipse cx="67.5" cy="100" rx="1.5" ry="1" fill="#F1F1F1"/>
<ellipse cx="67.5" cy="104" rx="1.5" ry="1" fill="#F1F1F1"/>
<ellipse cx="67.5" cy="108" rx="1.5" ry="1" fill="#F1F1F1"/>
<ellipse cx="67.5" cy="112" rx="1.5" ry="1" fill="#F1F1F1"/>
<ellipse cx="67.5" cy="116" rx="1.5" ry="1" fill="#F1F1F1"/>
</svg>
